Coordinates
version=1
nRows=42
nColumns=38
inDegrees=no

Units are S.I. units (second, meters, Newtons, ...)
If the header above contains a line with 'inDegrees', this indicates whether rotational values are in degrees (yes) or radians (no).

endheader
time	pelvis_tilt	pelvis_list	pelvis_rotation	pelvis_tx	pelvis_ty	pelvis_tz	hip_flexion_r	hip_adduction_r	hip_rotation_r	knee_angle_r	ankle_angle_r	subtalar_angle_r	mtp_angle_r	hip_flexion_l	hip_adduction_l	hip_rotation_l	knee_angle_l	ankle_angle_l	subtalar_angle_l	mtp_angle_l	lumbar_extension	lumbar_bending	lumbar_rotation	arm_flex_r	arm_add_r	arm_rot_r	elbow_flex_r	pro_sup_r	wrist_flex_r	wrist_dev_r	arm_flex_l	arm_add_l	arm_rot_l	elbow_flex_l	pro_sup_l	wrist_flex_l	wrist_dev_l
5	2.8114	1.36035	-1.09717	0.750184	1.60095	0.938962	-0.183499	0.168306	-0.0688229	0.414234	-0.113856	0	0	0.322627	-0.0919201	0.0649003	0.437998	-0.204748	0	0	-0.345372	0.094889	-0.0456783	0.577765	-0.310743	0.18437	1.4421	1.5708	0	0	0.613081	-0.301584	0.143184	1.36395	1.5708	0	0
5.01	2.80417	1.35695	-1.09266	0.750088	1.60613	0.938196	-0.192363	0.171509	-0.0675905	0.413276	-0.118072	0	0	0.324902	-0.0958954	0.0619124	0.419016	-0.20127	0	0	-0.349565	0.0965649	-0.042612	0.580597	-0.311019	0.183091	1.4437	1.5708	0	0	0.615613	-0.301904	0.142802	1.36692	1.5708	0	0
5.02	2.79194	1.3549	-1.08405	0.750017	1.61138	0.937293	-0.197935	0.174508	-0.0666793	0.416243	-0.118655	0	0	0.328443	-0.100307	0.059627	0.400981	-0.196874	0	0	-0.351823	0.0984186	-0.0385645	0.582752	-0.31174	0.182037	1.44569	1.5708	0	0	0.617587	-0.302117	0.142621	1.36995	1.5708	0	0
5.03	2.77777	1.35312	-1.07383	0.7499	1.61667	0.936309	-0.202337	0.177444	-0.0659913	0.421225	-0.117081	0	0	0.332121	-0.104978	0.0578039	0.384082	-0.193939	0	0	-0.353285	0.100345	-0.0342153	0.584516	-0.31262	0.181325	1.44752	1.5708	0	0	0.619183	-0.301962	0.142483	1.37261	1.5708	0	0
5.04	2.76496	1.35144	-1.06495	0.749733	1.62197	0.935325	-0.206575	0.179951	-0.0652139	0.426839	-0.114341	0	0	0.335676	-0.109405	0.0554044	0.370313	-0.192737	0	0	-0.354665	0.101887	-0.0300491	0.586046	-0.313554	0.18063	1.44939	1.5708	0	0	0.620565	-0.30176	0.142249	1.37525	1.5708	0	0
5.05	2.75432	1.34992	-1.0578	0.7495	1.62728	0.934338	-0.211	0.181917	-0.0641717	0.432032	-0.111629	0	0	0.339301	-0.112999	0.0533178	0.359808	-0.194223	0	0	-0.355979	0.102949	-0.0264875	0.587526	-0.31471	0.18022	1.4512	1.5708	0	0	0.621937	-0.301667	0.141975	1.37791	1.5708	0	0
5.06	2.74583	1.34829	-1.05278	0.749228	1.63261	0.933391	-0.21547	0.18341	-0.0630245	0.437982	-0.108619	0	0	0.342106	-0.115869	0.0509936	0.350906	-0.198687	0	0	-0.357736	0.103709	-0.0229926	0.589026	-0.316032	0.179811	1.45331	1.5708	0	0	0.623381	-0.30161	0.141646	1.38084	1.5708	0	0
5.07	2.74121	1.34643	-1.05125	0.748853	1.63799	0.932519	-0.220578	0.184184	-0.0620524	0.44395	-0.106003	0	0	0.344441	-0.117671	0.0478558	0.346566	-0.200872	0	0	-0.359996	0.103982	-0.0200523	0.590405	-0.317162	0.179296	1.45537	1.5708	0	0	0.624813	-0.301626	0.141431	1.38387	1.5708	0	0
5.08	2.73963	1.34427	-1.05248	0.748352	1.64339	0.931725	-0.226296	0.184408	-0.0610611	0.450004	-0.103348	0	0	0.346106	-0.118581	0.0452621	0.345082	-0.202897	0	0	-0.362819	0.103877	-0.0175327	0.59186	-0.318258	0.1786	1.45732	1.5708	0	0	0.626296	-0.301477	0.141251	1.38682	1.5708	0	0
5.09	2.73986	1.34171	-1.05526	0.747712	1.6488	0.931001	-0.232662	0.184275	-0.0601866	0.456075	-0.100361	0	0	0.347083	-0.11909	0.0431659	0.346141	-0.20361	0	0	-0.366139	0.103729	-0.0152677	0.593486	-0.319486	0.177765	1.45892	1.5708	0	0	0.627823	-0.301117	0.141188	1.38954	1.5708	0	0
5.1	2.73872	1.33917	-1.05625	0.746976	1.65426	0.930292	-0.238951	0.184471	-0.0589907	0.461925	-0.0977378	0	0	0.347947	-0.11963	0.0428522	0.348365	-0.204513	0	0	-0.369013	0.104042	-0.0132734	0.595192	-0.321088	0.177181	1.46005	1.5708	0	0	0.629121	-0.300538	0.141091	1.39199	1.5708	0	0
5.11	2.73614	1.33669	-1.05547	0.746174	1.65986	0.92959	-0.245256	0.185	-0.0574924	0.467562	-0.0954119	0	0	0.348537	-0.120468	0.043386	0.351553	-0.204489	0	0	-0.371023	0.105477	-0.0107806	0.596261	-0.323209	0.176365	1.46138	1.5708	0	0	0.6304	-0.299013	0.141238	1.39291	1.5708	0	0
5.12	2.73281	1.33324	-1.05426	0.745303	1.66552	0.928989	-0.252258	0.185825	-0.0557595	0.474017	-0.0928419	0	0	0.347457	-0.122094	0.0444715	0.355293	-0.203509	0	0	-0.373417	0.107329	-0.00722899	0.596624	-0.326168	0.174992	1.46278	1.5708	0	0	0.632314	-0.296326	0.142504	1.39242	1.5708	0	0
5.13	2.72678	1.33044	-1.0506	0.744339	1.6714	0.9284	-0.258776	0.186546	-0.0541085	0.479547	-0.092214	0	0	0.345435	-0.124027	0.0468438	0.357078	-0.202854	0	0	-0.374317	0.10957	-0.00369991	0.596137	-0.329233	0.173711	1.46395	1.5708	0	0	0.633153	-0.293605	0.143781	1.3919	1.5708	0	0
5.14	2.71816	1.32821	-1.04454	0.743267	1.67747	0.927802	-0.264624	0.187081	-0.0530116	0.484924	-0.0930679	0	0	0.34263	-0.126393	0.0499408	0.357506	-0.202789	0	0	-0.374028	0.1123	-0.000223632	0.595004	-0.33255	0.172703	1.46532	1.5708	0	0	0.632893	-0.290824	0.144745	1.39174	1.5708	0	0
5.15	2.70714	1.32715	-1.03639	0.742098	1.68375	0.927186	-0.269408	0.187036	-0.0523849	0.489967	-0.0939829	0	0	0.339294	-0.128826	0.0525295	0.356238	-0.203415	0	0	-0.372141	0.115406	0.00242348	0.593789	-0.33529	0.172687	1.46657	1.5708	0	0	0.630428	-0.288659	0.144208	1.39314	1.5708	0	0
5.16	2.69512	1.32702	-1.02763	0.740836	1.69022	0.926535	-0.273212	0.186157	-0.0523159	0.495653	-0.0953276	0	0	0.335173	-0.130996	0.0541349	0.353748	-0.204618	0	0	-0.368733	0.118339	0.00476691	0.592329	-0.33784	0.173318	1.46732	1.5708	0	0	0.626688	-0.286637	0.143078	1.39488	1.5708	0	0
5.17	2.6815	1.32788	-1.01765	0.739497	1.69689	0.925845	-0.275743	0.184535	-0.0527157	0.502365	-0.0977636	0	0	0.330072	-0.133027	0.0548847	0.349469	-0.206578	0	0	-0.363729	0.121145	0.00681857	0.590705	-0.340434	0.174749	1.46739	1.5708	0	0	0.621657	-0.28459	0.141378	1.39683	1.5708	0	0
5.18	2.66693	1.32958	-1.00676	0.738123	1.70379	0.925156	-0.27762	0.182524	-0.0526851	0.50899	-0.100233	0	0	0.324284	-0.134709	0.054374	0.344769	-0.208688	0	0	-0.357515	0.123809	0.00851601	0.588354	-0.343269	0.176608	1.4678	1.5708	0	0	0.615457	-0.282657	0.13929	1.39938	1.5708	0	0
5.19	2.646	1.33433	-0.989876	0.736632	1.71091	0.924253	-0.274821	0.179605	-0.0528266	0.518729	-0.103218	0	0	0.320776	-0.13544	0.0543107	0.339974	-0.213688	0	0	-0.347206	0.126557	0.0089216	0.585783	-0.345668	0.179923	1.46757	1.5708	0	0	0.606554	-0.280999	0.135274	1.40319	1.5708	0	0
5.2	2.62863	1.33784	-0.976153	0.73502	1.71819	0.92348	-0.27486	0.17672	-0.0521415	0.525736	-0.105876	0	0	0.314508	-0.135677	0.0536839	0.335829	-0.21678	0	0	-0.338118	0.128875	0.0100323	0.581863	-0.34882	0.181409	1.46803	1.5708	0	0	0.598972	-0.278532	0.133292	1.40575	1.5708	0	0
5.21	2.61569	1.33994	-0.966469	0.733349	1.7256	0.922871	-0.277686	0.173984	-0.0499569	0.530761	-0.107253	0	0	0.305024	-0.135784	0.0522697	0.330856	-0.216785	0	0	-0.330443	0.130968	0.01139	0.577273	-0.352082	0.181791	1.46859	1.5708	0	0	0.592369	-0.276141	0.132799	1.40743	1.5708	0	0
5.22	2.59885	1.34401	-0.952459	0.731598	1.73324	0.922146	-0.277919	0.170999	-0.0474095	0.5371	-0.11051	0	0	0.29608	-0.135076	0.051583	0.321441	-0.220903	0	0	-0.320077	0.13294	0.0114687	0.572158	-0.355113	0.182917	1.46892	1.5708	0	0	0.583889	-0.274113	0.131632	1.41014	1.5708	0	0
5.23	2.58497	1.34895	-0.939633	0.729694	1.74117	0.921392	-0.27856	0.167412	-0.0462607	0.542306	-0.114048	0	0	0.287204	-0.13235	0.0514856	0.309065	-0.225757	0	0	-0.308291	0.134004	0.00977392	0.565535	-0.357895	0.183275	1.46942	1.5708	0	0	0.574709	-0.272245	0.131058	1.41255	1.5708	0	0
5.24	2.57612	1.35454	-0.930291	0.727606	1.74925	0.920675	-0.279606	0.162828	-0.0460448	0.547179	-0.117894	0	0	0.279725	-0.127451	0.052137	0.296402	-0.234152	0	0	-0.296057	0.133774	0.00636774	0.557962	-0.360344	0.182883	1.46993	1.5708	0	0	0.565156	-0.270579	0.130918	1.41522	1.5708	0	0
5.25	2.57435	1.35878	-0.930749	0.725546	1.7569	0.920214	-0.281013	0.15713	-0.0402915	0.555302	-0.121671	0	0	0.272597	-0.122697	0.05033	0.287719	-0.246184	0	0	-0.287913	0.132614	0.00591857	0.552129	-0.363929	0.182677	1.47112	1.5708	0	0	0.557095	-0.268193	0.130782	1.41832	1.5708	0	0
5.26	2.57233	1.36642	-0.925319	0.723196	1.76498	0.919619	-0.280788	0.151093	-0.0409204	0.560524	-0.126176	0	0	0.272142	-0.114377	0.0540526	0.28533	-0.259098	0	0	-0.275314	0.129946	0.000340449	0.542378	-0.367258	0.180296	1.47382	1.5708	0	0	0.548221	-0.266522	0.132465	1.42152	1.5708	0	0
5.27	2.57412	1.37418	-0.923797	0.720761	1.77289	0.919147	-0.280208	0.144449	-0.039805	0.567077	-0.130919	0	0	0.273607	-0.105187	0.0568184	0.287888	-0.271127	0	0	-0.263858	0.126485	-0.00489196	0.532509	-0.370858	0.177317	1.47738	1.5708	0	0	0.540039	-0.264733	0.134489	1.42478	1.5708	0	0
5.28	2.57852	1.38161	-0.924593	0.718232	1.7807	0.918752	-0.279951	0.137879	-0.0371191	0.573947	-0.135955	0	0	0.276793	-0.0958199	0.0584843	0.294582	-0.282192	0	0	-0.253772	0.122856	-0.00953758	0.522314	-0.375132	0.173429	1.48242	1.5708	0	0	0.532703	-0.262447	0.136951	1.42822	1.5708	0	0
5.29	2.58641	1.38818	-0.928399	0.715643	1.78843	0.91846	-0.280668	0.131605	-0.033348	0.580928	-0.140644	0	0	0.280357	-0.0868717	0.0605906	0.303626	-0.291607	0	0	-0.245586	0.119157	-0.0140074	0.511951	-0.379456	0.168513	1.48856	1.5708	0	0	0.526017	-0.259905	0.139476	1.43222	1.5708	0	0
5.3	2.58213	1.39842	-0.919856	0.713018	1.79618	0.917918	-0.274065	0.124186	-0.0305984	0.594351	-0.155943	0	0	0.290965	-0.0776327	0.0632883	0.317397	-0.314618	0	0	-0.232713	0.113811	-0.0150304	0.495713	-0.385729	0.157386	1.4978	1.5708	0	0	0.522057	-0.255097	0.147285	1.43282	1.5708	0	0
5.31	2.60424	1.40008	-0.938671	0.710363	1.80347	0.918039	-0.278883	0.118129	-0.0240876	0.603393	-0.162296	0	0	0.290162	-0.0706705	0.064774	0.328849	-0.322517	0	0	-0.227609	0.111056	-0.0197638	0.490247	-0.389222	0.156875	1.49553	1.5708	0	0	0.51753	-0.252478	0.150568	1.43047	1.5708	0	0
5.32	2.6256	1.40201	-0.957074	0.707785	1.81077	0.918218	-0.282311	0.1117	-0.0173598	0.614708	-0.170388	0	0	0.289674	-0.0638883	0.0657591	0.340875	-0.330842	0	0	-0.223276	0.108328	-0.0235815	0.48409	-0.393387	0.155627	1.49553	1.5708	0	0	0.513158	-0.249841	0.153888	1.42938	1.5708	0	0
5.33	2.64322	1.40524	-0.969099	0.705185	1.81839	0.918397	-0.28463	0.105564	-0.013737	0.625714	-0.180405	0	0	0.290105	-0.0562981	0.0685675	0.352113	-0.339048	0	0	-0.216551	0.105205	-0.0291546	0.475086	-0.396963	0.152253	1.49671	1.5708	0	0	0.508629	-0.247645	0.1587	1.42806	1.5708	0	0
5.34	2.66779	1.40512	-0.992421	0.702741	1.82557	0.91898	-0.289025	0.0987271	-0.00360515	0.638647	-0.183031	0	0	0.284465	-0.0504119	0.0680186	0.360262	-0.341162	0	0	-0.215349	0.103856	-0.0342727	0.473565	-0.399329	0.155677	1.49449	1.5708	0	0	0.501548	-0.246536	0.157111	1.43033	1.5708	0	0
5.35	2.67465	1.41073	-0.9991	0.700421	1.83292	0.919374	-0.284012	0.0902194	0.00638619	0.656684	-0.205486	0	0	0.284307	-0.0438025	0.0663929	0.3664	-0.351209	0	0	-0.211019	0.0985341	-0.0225434	0.45044	-0.411078	0.133988	1.5119	1.5708	0	0	0.505902	-0.236694	0.173291	1.42562	1.5708	0	0
5.36	2.68695	1.41343	-1.0101	0.697991	1.84024	0.919921	-0.282506	0.0822414	0.0135493	0.67268	-0.21943	0	0	0.280198	-0.0378439	0.0653109	0.371404	-0.355002	0	0	-0.204874	0.0962976	-0.0255267	0.445059	-0.416879	0.13662	1.51006	1.5708	0	0	0.499839	-0.233947	0.175325	1.42432	1.5708	0	0
5.37	2.69863	1.4159	-1.02081	0.695569	1.84748	0.920524	-0.279962	0.0735439	0.0173665	0.689224	-0.234562	0	0	0.275607	-0.0321902	0.0636392	0.375704	-0.358546	0	0	-0.199321	0.0944874	-0.0276168	0.438838	-0.421636	0.136839	1.50919	1.5708	0	0	0.494281	-0.230883	0.177737	1.42293	1.5708	0	0
5.38	2.71158	1.41824	-1.03401	0.693195	1.85453	0.921192	-0.275047	0.0632342	0.0185767	0.709312	-0.254601	0	0	0.270409	-0.0265693	0.0612214	0.379268	-0.362011	0	0	-0.194382	0.0927146	-0.0279199	0.432652	-0.426176	0.135871	1.50847	1.5708	0	0	0.489785	-0.22718	0.180811	1.42033	1.5708	0	0
5.39	2.72525	1.42006	-1.04816	0.690939	1.86146	0.921937	-0.269637	0.0530945	0.0177854	0.729472	-0.273814	0	0	0.264414	-0.0211454	0.0595335	0.382198	-0.36403	0	0	-0.190169	0.0908348	-0.0280077	0.426985	-0.430577	0.135257	1.50738	1.5708	0	0	0.485949	-0.223959	0.184318	1.4175	1.5708	0	0
5.4	2.73736	1.42127	-1.06073	0.688822	1.86826	0.922709	-0.264	0.043901	0.0161468	0.74905	-0.290898	0	0	0.257899	-0.0164994	0.0582351	0.384623	-0.364808	0	0	-0.186638	0.0892026	-0.0281617	0.42182	-0.43449	0.134726	1.50598	1.5708	0	0	0.482618	-0.221267	0.187856	1.41487	1.5708	0	0
5.41	2.74742	1.42309	-1.07153	0.686834	1.87486	0.923357	-0.255632	0.0346388	0.0136172	0.771556	-0.3141	0	0	0.252218	-0.0121225	0.0567784	0.386787	-0.363431	0	0	-0.182343	0.0871331	-0.0276422	0.416504	-0.437749	0.133177	1.50392	1.5708	0	0	0.480554	-0.218693	0.192543	1.41104	1.5708	0	0
